<svg width="834" height="834" viewBox="0 0 834 834" fill="none" xmlns="http://www.w3.org/2000/svg">
<g clip-path="url(#clip0_192_2)">
<path d="M0 75H0.953065C6.31987 77.911 14.315 80.5576 20.1717 82.8319L55.0896 96.4368L175.554 143.441C188.761 148.588 202.999 153.646 215.757 159.558C217.662 160.441 226.082 182.292 227.657 186.129L245.769 230.089C247.073 233.254 252.53 247.246 254.006 248.868C258.198 253.474 267.755 260.875 272.836 265.268L326.724 311.35C334.517 317.99 347.414 328.258 354.152 335.052C348.657 289.135 343.445 243.184 338.515 197.203C343.86 199.235 351.632 203.095 357.022 205.55L396.299 223.435C402.665 226.344 411.067 230.494 417.448 233.029C435.602 223.945 455.609 215.981 474.008 207.176C479.745 204.432 491.299 199.818 496.12 196.957C495.741 205.398 494.137 216.565 493.147 225.171L487.397 275.165L483.15 312.578C482.49 318.368 481.513 328.971 480.254 334.357C489.222 325.98 499.459 317.564 508.83 309.58L551.1 273.474C560.055 265.843 570.736 256.964 579.41 249.096C580.937 247.711 588.373 228.766 589.664 225.634L608.722 179.4C610.506 175.058 615.136 162.911 617.311 159.341C624.03 156.376 631.747 153.609 638.641 150.917L678.431 135.402L792.438 90.9061C797.236 89.0331 831.035 76.396 832.677 75H833.418C832.811 79.6137 829.973 89.2228 828.657 94.098L819.413 128.322L803.486 187.865C800.99 197.194 798.25 208.697 795.452 217.67C782.551 214.446 769.418 210.432 756.602 207.348L774.24 141.323C768.946 142.998 762.401 145.755 757.144 147.807L728.858 158.857L647.775 190.518C644.819 196.504 641.349 205.672 638.735 212.006L622.482 251.452C620.141 257.156 617.103 266.493 614.208 271.364C611.166 276.486 587.856 294.993 581.405 300.498L526.43 347.482C531.484 346.444 538.13 346.308 543.362 345.858C570.858 343.495 598.627 342.039 626.086 339.4C629.788 328.496 634.418 316.961 638.356 306.096C639.875 301.892 645.906 284.85 647.775 282.327L743.698 259.499L772.456 252.655C776.504 251.686 783.414 250.253 787.185 248.992C777.009 285.65 768.009 324.4 757.417 360.727L718.657 350.351C722.465 335.476 726.643 318.473 730.972 303.844C713.489 307.939 694.989 312.711 677.527 316.345L654.743 377.28C647.902 378.33 638.686 378.799 631.625 379.342L593.292 382.311L462.654 392.559C479.387 394.826 500.95 396.429 518.155 398.117L619.567 408.19L700.829 416.3C712.854 417.482 730.027 419.71 741.735 420.165C732.8 452.734 723.32 486.625 715.017 519.296C702.384 515.871 688.579 512.425 676.163 508.736L685.387 474.378C686.771 469.275 689.426 460.505 690.286 455.519C653.672 452.51 616.472 447.792 579.813 444.572C567.596 443.499 555.139 441.9 542.939 440.976C582.713 470.354 621.863 501.755 661.466 531.478C675.243 541.814 688.991 552.929 702.869 563.042C695.62 592.565 686.885 622.158 679.539 651.661C666.711 648.333 653.346 644.904 640.604 641.316L651.204 601.248C653.053 594.275 655.122 585.572 657.26 578.807L565.98 508.972C551.719 498.057 533.955 485.248 520.452 474.081C519.613 477.957 516.457 485.965 514.983 489.976L504.411 518.783L465.59 625.579L432.051 717.716L422.196 744.853C421.137 747.765 418.458 755.662 417.244 758L348.806 569.941L326.209 507.848C322.318 497.14 317.916 483.941 313.591 473.561C310.059 476.871 302.513 482.303 298.309 485.513L269.099 507.803L176.278 578.811C180.714 593.64 184.302 608.917 188.42 623.844C189.919 629.277 191.414 636.18 193.075 641.377L168.093 647.995C164.363 648.981 157.656 650.565 154.284 651.84C146.095 622.785 139.128 592.117 130.656 563.327C141.5 554.391 153.907 545.268 165.127 536.691L223.717 491.887L266.337 459.295C273.396 453.899 283.621 445.656 290.907 440.89C285.489 441.736 279.186 442.14 273.655 442.676L243.602 445.646L143.148 455.662L152.104 488.632C153.833 495.023 156.016 502.378 157.361 508.784C144.635 512.405 131.396 515.574 118.834 519.255C115.882 510.169 113.022 499.193 110.789 489.883C105.252 466.796 97.2253 443.223 92.0996 420.137C106.221 419.561 126.308 416.948 140.86 415.485L229.044 406.725L323.734 397.279C338.06 395.845 357.718 394.494 371.584 392.382C357.011 391.821 340.14 390.028 325.381 388.882L227.298 381.248C211.926 380.054 194.378 378.285 179.125 377.525C171.024 358.054 163.922 336.238 156.094 316.371C138.655 312.67 120.09 307.892 102.647 303.754C106.603 318.599 111.64 335.704 114.965 350.464C104.754 353.125 86.071 357.516 76.2735 360.81C69.6524 337.455 63.529 312.998 57.2544 289.466L50.4871 264.072C49.3408 259.766 47.4696 253.413 46.7802 249.142C79.9247 257.715 114.771 265.282 148.168 273.377L171.558 278.879C175.869 279.887 182.466 281.257 186.469 282.831C191.385 295.16 195.897 307.999 200.612 320.45C201.969 324.033 206.733 336.252 207.387 339.448L281.503 345.214L301.748 346.766C303.392 346.905 304.991 347.401 306.068 347.458C305.962 346.21 304.214 344.796 303.21 343.943L246.21 295.403C238.732 289.005 230.848 282.434 223.464 275.983C218.018 271.224 213.922 258.194 211.018 251.133L194.858 211.917C192.288 205.685 188.769 196.4 185.854 190.54C162.941 180.766 136.161 171.039 112.714 161.91L78.6705 148.622C72.5246 146.219 65.2919 143.164 59.1024 141.142C65.4588 162.421 71.3363 185.938 77.0782 207.511C75.3825 207.854 73.6709 208.22 72.007 208.693C60.8563 211.862 49.3164 214.424 38.2659 217.884L9.89076 112.19L3.41659 87.8938C2.76457 85.444 0.932313 77.8598 0 76.1651V75Z" fill="#FEFEFE"/>
</g>
<defs>
<clipPath id="clip0_192_2">
<rect width="833.42" height="833.42" fill="white"/>
</clipPath>
</defs>
</svg>
